<?xml version="1.0" encoding="utf-8"?>
<svg version="1.1" id="Слой_1" xmlns="http://www.w3.org/2000/svg" xmlns:xlink="http://www.w3.org/1999/xlink" x="0px" y="0px"
   viewBox="0 0 429 150" style="enable-background:new 0 0 429 150;" xml:space="preserve">
<g>
  <path d="M132,146.5c-7.8-1.3-15.7-2.4-23.4-4.1c-22.9-4.9-44.2-13.3-60.6-30.9c-4.5-4.8-8.4-10.4-11.5-16.2
    c-2.1-3.8-3.8-4.1-7.3-2.7c-6.5,2.8-13.1,5.3-19.6,8c-0.3-0.4-0.6-0.8-0.9-1.2c5.6-4.9,11.1-10.1,17-14.7c3.6-2.8,5-5.2,4.6-10.2
    c-2-23,10.7-37.8,29-49c16.2-9.9,34.3-14.6,52.8-16.9c14.5-1.8,29.1-2.7,43.7-3.1c30.2-0.8,58.5,6.9,85.7,19.6
    C269.1,38,293.8,55.5,319.1,72c13.1,8.5,26.1,17.5,41.7,20.8c9.3,2,19,2.6,28.5,3.8c6.3,0.8,6.5,0.9,6.3,7.5
    c-6.5-0.3-13-0.3-19.4-1.1c-26.6-3.5-49.1-16.7-70.8-31.3c-21.7-14.5-42.7-30-66.3-41.4c-25.8-12.4-52.9-19-81.5-18.4
    c-28.2,0.5-56.2,3.4-82.7,13.8c-11.7,4.6-22.6,10.6-30.1,21.2c-5.8,8.2-7.6,17.4-6.2,28c61.2-34.3,124.3-39.6,189.3-14.3
    c22.8,8.9,42.8,22.6,59,41.5c-38.6-16.9-78.7-27.3-120.7-29.4c-42.1-2.1-83.5,2.4-124.2,16c2.7,8.5,7.9,14.9,14,20.5
    c14.8,13.5,33,20.3,52.2,24.1c33.6,6.6,67.3,6.6,100.7-1.8c6.6-1.7,13-4.3,20.3-6.7c-11.2,9.3-23.6,14.5-36.8,17.8
    c-6.1,1.5-12.2,2.7-18.3,4C160,146.5,146,146.5,132,146.5z"/>
</g>
</svg>
