<svg id="Bold" enable-background="new 0 0 24 24" height="512" viewBox="0 0 24 24" width="512" xmlns="http://www.w3.org/2000/svg"><path fill="#bacada" d="m17.972 3.054-12.366 4.946h-3.356c-1.24 0-2.25 1.01-2.25 2.25v2.75c0 1.178.925 2 2.25 2h.85l.908 6.356c.053.37.369.644.742.644h3c.214 0 .417-.091.56-.25.142-.159.21-.371.186-.584l-.59-5.246 10.065 4.026c.091.036.185.054.279.054.147 0 .295-.044.421-.129.206-.14.329-.372.329-.621v-15.5c0-.249-.123-.481-.329-.621-.207-.14-.469-.168-.699-.075z"/></svg>