<?xml version="1.0" encoding="utf-8"?>
<svg version="1.1" id="Слой_1" xmlns="http://www.w3.org/2000/svg" xmlns:xlink="http://www.w3.org/1999/xlink" x="0px" y="0px"
   viewBox="0 0 32 32" style="enable-background:new 0 0 32 32;" xml:space="preserve">
<g>
  <defs>
    <rect id="SVGID_1_" width="32" height="32"/>
  </defs>
  <clipPath id="SVGID_2_">
    <use xlink:href="#SVGID_1_"  style="overflow:visible;"/>
  </clipPath>
  <path style="clip-path:url(#SVGID_2_);fill:#1FBA0A;" d="M14.5,22c4.1,0,7.5-4.1,7.5-9.1c0-5-3.4-9.1-7.5-9.1c-2,0-4,1-5.4,2.8
    C7.8,8.2,7,10.5,7,12.9C7,17.9,10.4,22,14.5,22 M14.5,5.8c3,0,5.5,3.2,5.5,7.1c0,3.9-2.5,7.1-5.5,7.1S9,16.8,9,12.9
    C9,8.9,11.5,5.8,14.5,5.8 M20.8,21c-0.6,0-1,0.4-1,1s0.4,1,1,1c3.4,0,6.2,2.8,6.2,6.2c0,0.4-0.4,0.8-0.8,0.8H2.8
    C2.4,30,2,29.6,2,29.2C2,25.8,4.8,23,8.2,23c0.6,0,1-0.4,1-1s-0.4-1-1-1C3.7,21,0,24.7,0,29.2C0,30.7,1.3,32,2.8,32h23.4
    c1.5,0,2.8-1.3,2.8-2.8C29,24.7,25.3,21,20.8,21 M15.2,2.6C15.9,2.2,16.7,2,17.5,2c3,0,5.5,3.2,5.5,7.1c0,0.7-0.1,1.4-0.2,2.1
    c-0.1,0.5,0.2,1.1,0.7,1.2c0.1,0,0.2,0,0.2,0c0.5,0,0.9-0.3,1-0.8C24.9,10.8,25,10,25,9.1c0-5-3.4-9.1-7.5-9.1
    c-1.1,0-2.3,0.3-3.3,0.9c-0.5,0.3-0.6,0.9-0.4,1.4C14.1,2.8,14.8,2.9,15.2,2.6 M24,17c-0.6,0-1,0.4-1,1s0.4,1,1,1
    c3.4,0,6,2.9,6,6.3c0,0.1,0,0.2-0.1,0.3c-0.2,0.5,0,1.1,0.5,1.3c0.1,0.1,0.3,0.1,0.4,0.1c0.4,0,0.7-0.2,0.9-0.6
    c0.2-0.4,0.2-0.7,0.2-1.1C32,20.7,28.5,17,24,17"/>
</g>
</svg>
